<svg width="161" height="46" viewBox="0 0 161 46" fill="none" xmlns="http://www.w3.org/2000/svg">
<path fill-rule="evenodd" clip-rule="evenodd" d="M155.792 0.0090332H5.20648C2.33268 0.0090332 0 2.32114 0 5.17556V40.8328C0 43.6848 2.33148 45.9993 5.20768 45.9993H155.793C158.669 45.9993 161 43.6848 161 40.8328V5.17556C161 2.32114 158.669 0.0090332 155.792 0.0090332Z" fill="black"/>
<path fill-rule="evenodd" clip-rule="evenodd" d="M30.8816 10.9432C32.8014 8.65654 32.4008 6.28149 32.4008 6.28149C32.4008 6.28149 29.7135 6.29359 27.7826 8.81997C26.0637 11.0655 26.502 12.9866 26.502 12.9866C26.502 12.9866 28.8322 13.3861 30.8792 10.9432H30.8816ZM34.5676 21.74C34.5676 17.8251 37.749 16.2126 37.749 16.2126C37.749 16.2126 36.1208 13.2953 31.9892 13.2953C29.5875 13.2953 27.7427 14.6511 26.7489 14.6511C25.5916 14.6511 23.8642 13.3764 21.6368 13.3764C18.2111 13.3764 14.5576 16.4196 14.5576 22.2217C14.5576 28.1169 18.872 35.4515 22.2893 35.4515C23.4805 35.4515 25.312 34.2592 27.1556 34.2592C28.9665 34.2592 30.3005 35.4092 32.0207 35.4092C35.7612 35.4092 38.531 27.6764 38.531 27.6764C38.531 27.6764 34.57 26.1547 34.57 21.74H34.5676ZM61.8142 29.9868H59.203L57.7722 25.526H52.797L51.434 29.9868H48.8906L53.8175 14.8008H56.8631L61.8142 29.9868ZM57.34 23.6534L56.0461 19.6901C55.9105 19.2845 55.6538 18.3319 55.2737 16.8296H55.229C54.9999 17.7864 54.7577 18.7399 54.5026 19.6901L53.2315 23.6534H57.34ZM74.4884 24.3772C74.4884 26.2402 73.9812 27.711 72.9668 28.7908C72.0576 29.7532 70.9306 30.2338 69.5821 30.2338C68.1283 30.2338 67.0848 29.7156 66.448 28.6794H66.402V34.4476H63.9495V22.6414C63.9495 21.4708 63.9193 20.2687 63.8588 19.0376H66.0147L66.1515 20.7723H66.2C67.0171 19.465 68.2578 18.8136 69.9247 18.8136C71.2248 18.8136 72.3119 19.3221 73.1811 20.3438C74.0538 21.3679 74.4884 22.7128 74.4884 24.3784V24.3772ZM71.9899 24.4656C71.9899 23.4004 71.7478 22.5227 71.2635 21.8303C70.7345 21.1088 70.0215 20.7493 69.1306 20.7493C68.523 20.7493 67.9734 20.9502 67.483 21.3461C66.9914 21.7423 66.6504 22.2952 66.517 22.9125C66.4421 23.2151 66.4044 23.4597 66.4044 23.6558V25.48C66.4044 26.2789 66.6515 26.9508 67.143 27.4979C67.6368 28.0464 68.276 28.3211 69.0628 28.3211C69.9865 28.3211 70.7054 27.9676 71.22 27.2631C71.7332 26.5562 71.9923 25.6241 71.9923 24.4668L71.9899 24.4656ZM87.1844 24.3772C87.1844 26.2402 86.6772 27.711 85.6616 28.7908C84.7536 29.7532 83.6255 30.2338 82.2794 30.2338C80.8243 30.2338 79.7808 29.7156 79.1453 28.6794H79.0993V34.4476H76.6455V22.6414C76.6455 21.4708 76.6153 20.2687 76.5548 19.0376H78.712L78.8487 20.7723H78.8935C79.7106 19.465 80.9514 18.8136 82.6195 18.8136C83.9196 18.8136 85.0066 19.3221 85.8795 20.3438C86.7474 21.3679 87.1832 22.7128 87.1832 24.3784L87.1844 24.3772ZM84.687 24.4656C84.687 23.4004 84.445 22.5227 83.9595 21.8303C83.4294 21.1088 82.72 20.7493 81.8266 20.7493C81.224 20.7485 80.6403 20.9597 80.1779 21.3461C79.6861 21.7423 79.3452 22.2952 79.2119 22.9125C79.1462 23.1552 79.1084 23.4045 79.0993 23.6558V25.48C79.0993 26.2789 79.345 26.9508 79.834 27.4979C80.3268 28.0464 80.9671 28.3211 81.7552 28.3211C82.6812 28.3211 83.399 27.9676 83.9135 27.2631C84.4281 26.5562 84.6883 25.6241 84.6883 24.4668L84.687 24.4656ZM101.38 25.7294C101.38 27.021 100.926 28.0705 100.021 28.8828C99.0234 29.769 97.6349 30.2143 95.8505 30.2143C94.2018 30.2143 92.8824 29.8972 91.8825 29.2654L92.4514 27.2377C93.5288 27.8841 94.7091 28.2061 95.9958 28.2061C96.9195 28.2061 97.6385 28.0004 98.1554 27.5864C98.6686 27.1735 98.9265 26.618 98.9265 25.928C98.9265 25.3105 98.7146 24.7924 98.2898 24.3712C97.8673 23.95 97.164 23.559 96.1774 23.1969C93.4973 22.2044 92.1585 20.7517 92.1585 18.8415C92.1585 17.5946 92.6281 16.5694 93.5675 15.7728C94.5045 14.9751 95.7537 14.5768 97.3153 14.5768C98.7098 14.5768 99.867 14.819 100.79 15.2983L100.176 17.2811C99.315 16.8163 98.3382 16.5826 97.2475 16.5826C96.3844 16.5826 95.7114 16.7945 95.2271 17.2134C94.8192 17.5886 94.6134 18.0462 94.6134 18.5885C94.6134 19.189 94.8471 19.6852 95.3155 20.0774C95.7259 20.4358 96.4667 20.8268 97.5429 21.2468C98.86 21.7733 99.8284 22.3884 100.449 23.0929C101.072 23.7973 101.381 24.6762 101.381 25.7258L101.379 25.7294H101.38ZM109.491 20.8631H106.786V26.1785C106.786 27.5319 107.262 28.2074 108.215 28.2074C108.654 28.2074 109.017 28.1673 109.306 28.0935L109.375 29.9408C108.89 30.1199 108.255 30.2108 107.467 30.2108C106.498 30.2108 105.739 29.9166 105.195 29.332C104.65 28.7448 104.376 27.7631 104.376 26.3806V20.8606H102.764V19.0352H104.374V17.0294L106.784 16.3091V19.0352H109.488V20.8631H109.49H109.491ZM121.686 24.422C121.686 26.1046 121.202 27.4846 120.231 28.5669C119.215 29.6805 117.867 30.2349 116.187 30.2349C114.569 30.2349 113.278 29.7 112.316 28.6346C111.354 27.5682 110.872 26.2245 110.872 24.6023C110.872 22.9064 111.368 21.5155 112.36 20.4358C113.351 19.3548 114.689 18.8136 116.366 18.8136C117.989 18.8136 119.292 19.3475 120.275 20.4139C121.214 21.4489 121.684 22.7853 121.684 24.422H121.686ZM119.142 24.5007C119.142 23.4924 118.925 22.6243 118.483 21.9017C117.97 21.0277 117.234 20.592 116.282 20.592C115.297 20.592 114.547 21.0301 114.033 21.9017C113.592 22.6268 113.375 23.5056 113.375 24.5443C113.375 25.5551 113.594 26.4206 114.034 27.1421C114.564 28.0149 115.305 28.4506 116.261 28.4506C117.198 28.4506 117.931 28.0063 118.464 27.1179C118.916 26.3831 119.142 25.5079 119.142 24.4995V24.5007ZM129.658 21.1766C129.404 21.1308 129.145 21.1082 128.886 21.1088C128.022 21.1088 127.355 21.4308 126.886 22.0796C126.477 22.6486 126.272 23.3713 126.272 24.2416V29.9856H123.822L123.846 22.4839C123.848 21.3345 123.817 20.1852 123.753 19.0376H125.887L125.978 21.1318H126.046C126.279 20.4474 126.706 19.845 127.274 19.3971C127.786 19.0163 128.407 18.8105 129.045 18.81C129.273 18.81 129.476 18.8269 129.658 18.8548V21.1766ZM140.625 23.9947C140.625 24.4305 140.597 24.7973 140.536 25.0975H133.178C133.209 26.1785 133.563 27.0065 134.247 27.5779C134.867 28.0863 135.669 28.343 136.651 28.343C137.742 28.343 138.737 28.1698 139.629 27.8248L140.014 29.5135C138.969 29.9662 137.738 30.1913 136.314 30.1913C134.603 30.1913 133.258 29.6914 132.28 28.6928C131.305 27.6953 130.816 26.354 130.816 24.6714C130.816 23.0202 131.269 21.6451 132.18 20.5484C133.132 19.3778 134.419 18.7931 136.04 18.7931C137.63 18.7931 138.836 19.3778 139.652 20.5484C140.302 21.478 140.628 22.628 140.628 23.9935H140.626L140.625 23.9947ZM138.289 23.3628C138.301 22.6414 138.142 22.0191 137.811 21.4938C137.387 20.8159 136.734 20.4794 135.856 20.4794C135.055 20.4794 134.403 20.8086 133.904 21.4708C133.495 21.9974 133.253 22.6268 133.177 23.3628H138.286V23.364L138.289 23.3628Z" fill="white"/>
</svg>
