<svg width="20" height="18" viewBox="0 0 20 18" fill="none" xmlns="http://www.w3.org/2000/svg">
<g clip-path="url(#clip0)">
<path d="M1.94604 9.78799V13.694C1.94667 14.1214 2.10277 14.5339 2.38522 14.8546C2.66768 15.1754 3.05718 15.3824 3.48105 15.437V16.213C3.48985 16.511 3.6144 16.7937 3.82826 17.0014C4.04212 17.209 4.32847 17.3252 4.62655 17.3252C4.92463 17.3252 5.21097 17.209 5.42484 17.0014C5.6387 16.7937 5.76324 16.511 5.77205 16.213V15.451H14.2001V16.213C14.2089 16.511 14.3334 16.7937 14.5473 17.0014C14.7611 17.209 15.0475 17.3252 15.3455 17.3252C15.6436 17.3252 15.93 17.209 16.1438 17.0014C16.3577 16.7937 16.4822 16.511 16.491 16.213V15.44C16.9205 15.3914 17.317 15.1864 17.6051 14.8643C17.8932 14.5421 18.0526 14.1252 18.053 13.693V9.78699L1.94604 9.78799ZM14.317 10.908C14.5475 10.908 14.7727 10.9763 14.9643 11.1043C15.1559 11.2324 15.3052 11.4143 15.3934 11.6272C15.4815 11.84 15.5046 12.0743 15.4597 12.3003C15.4147 12.5263 15.3038 12.7339 15.1408 12.8968C14.9779 13.0597 14.7703 13.1707 14.5443 13.2156C14.3183 13.2606 14.0841 13.2375 13.8712 13.1493C13.6583 13.0611 13.4764 12.9118 13.3484 12.7202C13.2204 12.5287 13.152 12.3034 13.152 12.073C13.152 11.9199 13.1822 11.7684 13.2408 11.627C13.2994 11.4855 13.3853 11.3571 13.4936 11.2489C13.6019 11.1407 13.7305 11.0549 13.8719 10.9964C14.0134 10.9379 14.165 10.9079 14.318 10.908H14.317ZM5.68204 10.908C5.91246 10.908 6.1377 10.9763 6.32928 11.1043C6.52087 11.2324 6.67019 11.4143 6.75837 11.6272C6.84655 11.84 6.86961 12.0743 6.82466 12.3003C6.77971 12.5263 6.66876 12.7339 6.50583 12.8968C6.3429 13.0597 6.13531 13.1707 5.90932 13.2156C5.68334 13.2606 5.4491 13.2375 5.23622 13.1493C5.02335 13.0611 4.8414 12.9118 4.71339 12.7202C4.58537 12.5287 4.51704 12.3034 4.51704 12.073C4.51704 11.92 4.54718 11.7685 4.60573 11.6272C4.66427 11.4858 4.75009 11.3574 4.85827 11.2492C4.96645 11.141 5.09488 11.0552 5.23622 10.9967C5.37757 10.9381 5.52906 10.908 5.68204 10.908Z" fill="#232455"/>
<path d="M18.054 2.338V1.758C18.0535 1.2926 17.8686 0.84636 17.5399 0.5169C17.2112 0.18744 16.7654 0.00158628 16.3 0L3.7 0C3.23461 0.00158628 2.78878 0.18744 2.46007 0.5169C2.13136 0.84636 1.94653 1.2926 1.946 1.758V2.338C1.39373 2.46443 0.900634 2.77433 0.547198 3.21713C0.193763 3.65992 0.000866854 4.20945 0 4.776L0 6.363C0 6.51842 0.0617391 6.66747 0.171635 6.77736C0.281532 6.88726 0.430583 6.949 0.586 6.949C0.741417 6.949 0.890468 6.88726 1.00036 6.77736C1.11026 6.66747 1.172 6.51842 1.172 6.363V4.776C1.17216 4.52175 1.24514 4.27286 1.38231 4.05879C1.51947 3.84471 1.71508 3.6744 1.946 3.568V8.616H10.614C10.6844 8.20323 10.8983 7.82855 11.2178 7.55798C11.5374 7.28742 11.9423 7.13834 12.361 7.137H13.6C14.0187 7.13854 14.4234 7.28769 14.743 7.55822C15.0625 7.82875 15.2764 8.20331 15.347 8.616H18.053V3.568C18.2839 3.6744 18.4795 3.84471 18.6167 4.05879C18.7539 4.27286 18.8268 4.52175 18.827 4.776V6.363C18.827 6.51842 18.8887 6.66747 18.9986 6.77736C19.1085 6.88726 19.2576 6.949 19.413 6.949C19.5684 6.949 19.7175 6.88726 19.8274 6.77736C19.9373 6.66747 19.999 6.51842 19.999 6.363V4.776C19.9982 4.20958 19.8054 3.66016 19.4522 3.21739C19.099 2.77461 18.6061 2.46462 18.054 2.338ZM12.981 5.961C12.7476 5.961 12.5195 5.89179 12.3254 5.76213C12.1314 5.63247 11.9801 5.44818 11.8908 5.23257C11.8015 5.01695 11.7781 4.77969 11.8237 4.55079C11.8692 4.3219 11.9816 4.11164 12.1466 3.94661C12.3116 3.78159 12.5219 3.6692 12.7508 3.62367C12.9797 3.57814 13.2169 3.60151 13.4326 3.69082C13.6482 3.78013 13.8325 3.93138 13.9621 4.12543C14.0918 4.31948 14.161 4.54762 14.161 4.781C14.161 5.09396 14.0367 5.39409 13.8154 5.61539C13.5941 5.83668 13.294 5.961 12.981 5.961Z" fill="#232455"/>
</g>
<defs>
<clipPath id="clip0">
<rect width="20" height="17.359" fill="white"/>
</clipPath>
</defs>
</svg>
