<svg width="23" height="15" viewBox="0 0 23 15" fill="none" xmlns="http://www.w3.org/2000/svg">
<path d="M21.5039 11.227H20.554V10.2769C20.554 10.156 20.5301 10.0362 20.4839 9.9245C20.4376 9.81276 20.3697 9.71122 20.2842 9.6257C20.1987 9.54018 20.0972 9.47234 19.9854 9.42606C19.8737 9.37977 19.7539 9.35596 19.633 9.35596C19.512 9.35596 19.3922 9.37977 19.2805 9.42606C19.1687 9.47234 19.0672 9.54018 18.9817 9.6257C18.8962 9.71122 18.8283 9.81276 18.782 9.9245C18.7358 10.0362 18.7119 10.156 18.7119 10.2769V11.227H17.762C17.5177 11.227 17.2834 11.324 17.1107 11.4967C16.938 11.6694 16.8409 11.9037 16.8409 12.1479C16.8409 12.3922 16.938 12.6265 17.1107 12.7992C17.2834 12.9719 17.5177 13.069 17.762 13.069H18.7119V14.019C18.7119 14.1399 18.7358 14.2597 18.782 14.3714C18.8283 14.4831 18.8962 14.5847 18.9817 14.6702C19.0672 14.7557 19.1687 14.8236 19.2805 14.8698C19.3922 14.9161 19.512 14.94 19.633 14.94C19.7539 14.94 19.8737 14.9161 19.9854 14.8698C20.0972 14.8236 20.1987 14.7557 20.2842 14.6702C20.3697 14.5847 20.4376 14.4831 20.4839 14.3714C20.5301 14.2597 20.554 14.1399 20.554 14.019V13.069H21.5039C21.7482 13.069 21.9825 12.9719 22.1552 12.7992C22.3279 12.6265 22.425 12.3922 22.425 12.1479C22.425 11.9037 22.3279 11.6694 22.1552 11.4967C21.9825 11.324 21.7482 11.227 21.5039 11.227Z" fill="#232455"/>
<path d="M20.554 3.026C20.554 2.22346 20.2352 1.45378 19.6677 0.886299C19.1002 0.318814 18.3305 0 17.528 0H3.026C2.22345 0 1.45378 0.318814 0.886295 0.886299C0.31881 1.45378 0 2.22346 0 3.026C0 3.09177 0.0261285 3.15485 0.0726375 3.20136C0.119147 3.24787 0.182226 3.274 0.248 3.274H20.306C20.3718 3.274 20.4349 3.24787 20.4814 3.20136C20.5279 3.15485 20.554 3.09177 20.554 3.026Z" fill="#232455"/>
<path d="M20.554 5.36499V6.48999C20.5541 6.56221 20.5392 6.63365 20.5104 6.69989C20.4817 6.76613 20.4396 6.82573 20.3867 6.87498C20.3339 6.92424 20.2715 6.96209 20.2034 6.98618C20.1354 7.01026 20.063 7.02006 19.991 7.01498C19.2569 6.96436 18.5204 7.0717 17.8313 7.32974C17.1421 7.58779 16.5163 7.99055 15.9959 8.51089C15.4756 9.03124 15.0728 9.65708 14.8148 10.3462C14.5567 11.0354 14.4494 11.7719 14.5 12.506C14.5051 12.578 14.4953 12.6503 14.4712 12.7184C14.4471 12.7865 14.4093 12.8489 14.36 12.9017C14.3108 12.9545 14.2512 12.9966 14.1849 13.0254C14.1187 13.0542 14.0472 13.069 13.975 13.069H3.02601C2.22346 13.069 1.45379 12.7502 0.886303 12.1827C0.318818 11.6152 8.06532e-06 10.8455 8.06532e-06 10.043V5.36499C-0.000255941 5.33225 0.00596389 5.29979 0.0183088 5.26947C0.0306537 5.23915 0.0488794 5.21158 0.0719347 5.18834C0.0949899 5.1651 0.122418 5.14665 0.152638 5.13406C0.182858 5.12148 0.215271 5.11499 0.248008 5.11499H20.306C20.3387 5.11499 20.3712 5.12148 20.4014 5.13406C20.4316 5.14665 20.459 5.1651 20.4821 5.18834C20.5051 5.21158 20.5234 5.23915 20.5357 5.26947C20.5481 5.29979 20.5543 5.33225 20.554 5.36499Z" fill="#232455"/>
</svg>
