<svg width="296" height="174" viewBox="0 0 296 174" fill="none" xmlns="http://www.w3.org/2000/svg">
<path d="M0 12C0 5.37258 5.37258 0 12 0H284C290.627 0 296 5.37258 296 12V174H0V12Z" fill="#313279"/>
<mask id="mask0" mask-type="alpha" maskUnits="userSpaceOnUse" x="0" y="0" width="296" height="174">
<rect width="296" height="174" rx="12" fill="#222360"/>
</mask>
<g mask="url(#mask0)">
<path opacity="0.879" d="M116.219 0.268311H296V52.2683C296 52.2683 285.858 40.8491 241.678 46.0813C197.498 51.3134 176.723 50.6281 155.598 44.5178C110.653 31.5178 116.219 0.268311 116.219 0.268311Z" fill="url(#paint0_linear)"/>
<path opacity="0.879" d="M0 75.2188C0 75.2188 18.9557 97.9883 53.2818 127.202C87.6079 156.416 137.299 173.745 137.299 173.745H0V75.2188Z" fill="url(#paint1_linear)"/>
</g>
<mask id="mask1" mask-type="alpha" maskUnits="userSpaceOnUse" x="0" y="0" width="296" height="174">
<rect width="296" height="174" rx="12" fill="#222360"/>
</mask>
<g mask="url(#mask1)">
<path d="M304.253 61.2521H251.027C251.027 56.2907 254.757 52.2683 259.359 52.2683H299.703C300.954 52.3146 302.135 52.8572 302.989 53.7772C303.842 54.6972 304.297 55.9194 304.254 57.1759L304.253 61.2521Z" fill="#515994"/>
<path d="M252.792 55.7267H304.052C304.027 55.6407 303.996 55.558 303.967 55.4736H252.98C252.917 55.5564 252.853 55.6415 252.792 55.7267Z" fill="#180C30"/>
<path d="M226.346 128.567L250.129 128.905L258.539 117.665L246.219 100.855L226.97 99.8416L223.37 110.344L226.346 128.567Z" fill="#180C30"/>
<path d="M226.345 128.568H199.824C199.2 128.545 198.611 128.274 198.186 127.816C197.761 127.357 197.534 126.748 197.555 126.121V105.623L198.515 95.3261C199.372 86.0864 201.535 77.0163 204.937 68.3885L206.884 63.4616C207.122 62.828 207.52 62.2674 208.039 61.8352C208.558 61.4029 209.18 61.1137 209.844 60.9961L223.959 58.7251C227.107 58.2181 230.29 57.9581 233.478 57.9475L404.001 57.3923C405.695 57.4407 407.311 58.1177 408.537 59.2926C409.764 60.4674 410.513 62.0569 410.641 63.754L411.916 75.6242C412.33 79.4831 412.537 83.3616 412.537 87.2429V123.895C412.561 124.656 412.296 125.397 411.798 125.969C411.299 126.542 410.603 126.904 409.849 126.982L390.554 128.29C387.791 128.477 385.024 128.571 382.254 128.571H358.949C358.949 128.571 360.356 111.615 348.149 111.615C335.942 111.615 334.458 121.823 335.162 128.908H250.126C250.126 128.908 251.769 111.447 238.469 111.447C225.17 111.447 226.267 126.712 226.345 128.568Z" fill="#3D4688"/>
<path d="M222.628 73.1063V104.924C222.635 105.586 222.484 106.24 222.187 106.831C221.89 107.423 221.456 107.934 220.922 108.322C219.169 109.564 217.162 110.396 215.047 110.757L202.444 112.878L202.656 97.9586C202.782 88.7292 204.395 79.5811 207.431 70.8691L220.319 70.6545C220.631 70.6611 220.94 70.7299 221.226 70.8571C221.511 70.9843 221.769 71.1672 221.984 71.3953C222.199 71.6234 222.367 71.8922 222.477 72.1859C222.588 72.4796 222.639 72.7925 222.628 73.1063Z" fill="#353E7E"/>
<path d="M209.643 65.179L209.075 66.9463L222.085 66.6041C223.423 66.6079 224.714 67.0982 225.72 67.9844C226.725 68.8705 227.378 70.0924 227.555 71.4242L230.382 88.4638C230.478 89.1984 230.849 89.8687 231.419 90.3391C231.989 90.8095 232.716 91.0449 233.452 90.9976L253.429 89.1162C256.286 88.8484 259.15 88.7145 262.02 88.7145H406.672V87.7939C406.673 78.8644 405.676 69.9631 403.699 61.2571H234.107C226.466 61.2584 218.844 62.039 211.36 63.5868C210.959 63.6759 210.589 63.8702 210.288 64.1499C209.986 64.4297 209.764 64.7848 209.643 65.179Z" fill="url(#paint2_linear)"/>
<path d="M326.835 64.0358H293.156V86.8113H326.835V64.0358Z" fill="#A3C4E9"/>
<path d="M288.931 64.0358H255.252V86.8113H288.931V64.0358Z" fill="#A3C4E9"/>
<path d="M251.027 86.8114H232.134L230.054 69.9653C229.666 66.825 231.931 64.035 234.869 64.035H251.029L251.027 86.8114Z" fill="#A3C4E9"/>
<path d="M326.835 64.0358H293.156V67.1608H326.835V64.0358Z" fill="#BCE4FA"/>
<path d="M288.931 64.0358H255.252V67.1608H288.931V64.0358Z" fill="#BCE4FA"/>
<path d="M251.027 64.0358V67.1616H240.798C238.506 67.2115 236.289 67.992 234.467 69.3903C232.646 70.7885 231.314 72.7321 230.664 74.9403L230.049 69.9652C229.662 66.8274 231.927 64.0358 234.865 64.0358H251.027Z" fill="#BCE4FA"/>
<path d="M387.786 106.551L397.409 96.4288H412.539V96.1758H397.314L387.691 106.298H222.188V128.567H222.422V106.551H387.786Z" fill="#180C30"/>
<path d="M258.655 106.297H258.42V128.905H258.655V106.297Z" fill="#180C30"/>
<path d="M294.329 106.34H294.094V128.905H294.329V106.34Z" fill="#180C30"/>
<path d="M231.312 88.7096H222.628V88.9626H231.312V88.7096Z" fill="#004699"/>
<path d="M238.704 57.9304H238.469V62.7706H238.704V57.9304Z" fill="#004699"/>
<path d="M202.615 100.729H199.158V100.982H202.615V100.729Z" fill="#180C30"/>
<path d="M202.737 112.767H202.502V128.568H202.737V112.767Z" fill="#180C30"/>
<path d="M202.621 118.496H197.555V118.749H202.621V118.496Z" fill="#180C30"/>
<path d="M200.378 100.857L200.63 96.5607C201.2 86.718 203.353 77.0329 207.006 67.8814L207.891 65.6714C207.97 65.4858 208.008 65.2844 208 65.0823C207.991 64.8802 207.938 64.6826 207.843 64.5041C207.749 64.3255 207.615 64.1707 207.453 64.0511C207.29 63.9316 207.103 63.8503 206.905 63.8133L206.753 63.7932L204.937 68.3867C201.535 77.0145 199.372 86.0847 198.515 95.3244L197.635 104.766C198.418 104.448 199.093 103.91 199.58 103.217C200.066 102.524 200.343 101.704 200.378 100.857Z" fill="#A3C4E9"/>
<path d="M238.177 134.705C243.671 134.705 248.124 129.903 248.124 123.979C248.124 118.056 243.671 113.254 238.177 113.254C232.684 113.254 228.23 118.056 228.23 123.979C228.23 129.903 232.684 134.705 238.177 134.705Z" fill="#004681"/>
<path d="M238.177 131.404C241.98 131.404 245.063 128.08 245.063 123.98C245.063 119.879 241.98 116.555 238.177 116.555C234.374 116.555 231.291 119.879 231.291 123.98C231.291 128.08 234.374 131.404 238.177 131.404Z" fill="#A3C4E9"/>
<path d="M238.177 125.222C236.877 125.208 235.601 124.871 234.462 124.241C233.323 123.611 232.357 122.708 231.651 121.611C232.029 120.163 232.875 118.881 234.056 117.966C235.236 117.051 236.686 116.555 238.177 116.555C239.668 116.555 241.118 117.051 242.298 117.966C243.479 118.881 244.325 120.163 244.703 121.611C243.997 122.708 243.031 123.611 241.892 124.241C240.753 124.871 239.477 125.208 238.177 125.222Z" fill="#BCE4FA"/>
<path d="M214.033 118.24H210.908V119.536H214.033V118.24Z" fill="#FFCA48"/>
<path d="M241.023 107.8H237.488V109.461H241.023V107.8Z" fill="#FFCA48"/>
<path d="M278.267 119.425H274.57V122.098H278.267V119.425Z" fill="#180C30"/>
<path d="M277.841 118.318H274.996V119.425H277.841V118.318Z" fill="#FFCA48"/>
<path d="M221.162 78.672V99.8457H204.087L204.292 94.6496C204.504 89.2178 205.461 83.8414 207.138 78.6728L221.162 78.672Z" fill="#A3C4E9"/>
<path d="M197.555 117.907H199.965C200.187 117.899 200.397 117.802 200.548 117.639C200.699 117.476 200.779 117.26 200.772 117.037V113.747C200.779 113.525 200.699 113.308 200.548 113.145C200.397 112.982 200.187 112.886 199.965 112.877H197.555V117.907Z" fill="#A3C4E9"/>
<path d="M197.555 124.856H200.2C200.357 124.85 200.506 124.782 200.613 124.666C200.72 124.551 200.777 124.397 200.772 124.239V122.942C200.777 122.784 200.72 122.631 200.613 122.515C200.506 122.4 200.357 122.331 200.2 122.325H197.555V124.856Z" fill="#FFCA48"/>
<path d="M207.725 66.4818V70.8681H203.997L202.053 69.8976H194.777V71.3364H192.587V66.4858L207.725 66.4818Z" fill="#3D4688"/>
<path d="M194.269 86.0104H192V71.3325H194.196C194.442 71.3417 194.674 71.4483 194.841 71.629C195.009 71.8097 195.099 72.0497 195.09 72.2965V85.1235C195.098 85.3503 195.015 85.5708 194.861 85.737C194.708 85.9031 194.494 86.0014 194.269 86.0104Z" fill="#3D4688"/>
<path opacity="0.1" d="M382.256 128.568C385.024 128.568 387.791 128.475 390.556 128.287L409.851 126.978C410.605 126.901 411.301 126.539 411.8 125.966C412.298 125.394 412.563 124.652 412.539 123.892V87.2427C412.539 83.3614 412.331 79.4829 411.917 75.624L410.642 63.7538C410.578 63.1506 410.442 62.5573 410.237 61.9865L197.555 116.155V126.122C197.534 126.748 197.761 127.358 198.186 127.816C198.611 128.275 199.2 128.545 199.824 128.568H226.345C226.265 126.713 225.171 111.444 238.471 111.444C251.77 111.444 250.128 128.906 250.128 128.906H335.164C334.46 121.821 335.946 111.614 348.151 111.614C360.355 111.614 358.95 128.569 358.95 128.569L382.256 128.568Z" fill="white"/>
<path d="M221.162 78.672H207.137C205.641 83.2828 204.717 88.0612 204.386 92.8991L204.907 91.8147C206.07 89.2621 207.929 87.0925 210.27 85.5571C212.61 84.0216 215.335 83.1831 218.13 83.1386H221.159L221.162 78.672Z" fill="#BCE4FA"/>
</g>
<defs>
<linearGradient id="paint0_linear" x1="193.014" y1="44.9762" x2="150.73" y2="-34.9339" gradientUnits="userSpaceOnUse">
<stop stop-color="#3D4292"/>
<stop offset="0.670391" stop-color="#313279"/>
<stop offset="1" stop-color="#33347B"/>
</linearGradient>
<linearGradient id="paint1_linear" x1="68.6494" y1="75.2188" x2="68.6494" y2="173.745" gradientUnits="userSpaceOnUse">
<stop stop-color="#3C3D8C"/>
<stop offset="1" stop-color="#3C3D8C" stop-opacity="0"/>
</linearGradient>
<linearGradient id="paint2_linear" x1="209.075" y1="76.1303" x2="406.672" y2="76.1303" gradientUnits="userSpaceOnUse">
<stop stop-color="#29327E"/>
<stop offset="1" stop-color="#180C30"/>
</linearGradient>
</defs>
</svg>
