<svg width="723" height="723" viewBox="0 0 723 723" fill="none" xmlns="http://www.w3.org/2000/svg">
<circle cx="362" cy="361" r="265" fill="url(#paint0_linear)"/>
<path d="M361.5 0C161.607 0 0 161.976 0 361.5C0 561.393 161.976 723 361.5 723C561.393 723 723 561.024 723 361.5C723 161.976 561.393 0 361.5 0ZM361.5 700.544C174.492 700.544 22.8238 548.876 22.8238 361.868C22.8238 174.86 174.492 23.192 361.5 23.192C548.508 23.192 700.176 174.86 700.176 361.868C700.176 548.876 548.508 700.544 361.5 700.544Z" fill="#F3F8FF"/>
<path d="M605.91 96.8754C601.192 96.8754 598.98 92.8927 596.916 89.3525C594.999 86.1073 593.377 83.3047 590.281 83.3047C587.185 83.3047 585.563 86.1073 583.647 89.3525C581.582 92.8927 579.371 96.8754 574.653 96.8754C569.935 96.8754 567.723 92.8927 565.659 89.3525C563.742 86.1073 562.121 83.3047 559.024 83.3047C555.928 83.3047 554.306 86.1073 552.39 89.3525C550.326 92.8927 548.114 96.7279 543.396 96.7279C538.678 96.7279 536.466 92.7452 534.402 89.205C532.485 85.9598 530.864 83.1571 527.767 83.1571C524.671 83.1571 523.049 85.9598 521.133 89.205C519.069 92.7452 516.857 96.7279 512.139 96.7279C507.421 96.7279 505.209 92.7452 503.145 89.205C501.229 85.9598 499.607 83.1571 496.511 83.1571C495.773 83.1571 495.184 82.5671 495.184 81.8296C495.184 81.092 495.773 80.502 496.511 80.502C501.229 80.502 503.44 84.4847 505.504 88.0249C507.421 91.2701 509.043 94.0728 512.139 94.0728C515.235 94.0728 516.857 91.2701 518.774 88.0249C520.838 84.4847 523.049 80.502 527.767 80.502C532.485 80.502 534.697 84.4847 536.761 87.8774C538.678 91.1226 540.3 93.9253 543.396 93.9253C546.492 93.9253 548.114 91.1226 550.031 87.8774C552.095 84.3372 554.306 80.3545 559.024 80.3545C563.742 80.3545 565.954 84.3372 568.018 87.8774C569.935 91.1226 571.557 93.9253 574.653 93.9253C577.749 93.9253 579.371 91.1226 581.288 87.8774C583.352 84.3372 585.563 80.502 590.281 80.502C594.999 80.502 597.211 84.4847 599.275 88.0249C601.192 91.2701 602.814 94.0728 605.91 94.0728C609.006 94.0728 610.628 91.2701 612.544 88.0249C614.609 84.4847 616.82 80.502 621.538 80.502C622.275 80.502 622.865 81.092 622.865 81.8296C622.865 82.5671 622.275 83.1571 621.538 83.1571C618.442 83.1571 616.82 85.9598 614.903 89.205C612.839 92.8927 610.48 96.8754 605.91 96.8754Z" fill="#C7DDFF"/>
<path d="M605.91 75.4868C601.192 75.4868 598.98 71.504 596.916 67.9638C594.999 64.7186 593.377 61.916 590.281 61.916C587.185 61.916 585.563 64.7186 583.647 67.9638C581.582 71.504 579.371 75.4868 574.653 75.4868C569.935 75.4868 567.723 71.504 565.659 67.9638C563.742 64.7186 562.121 61.916 559.024 61.916C555.928 61.916 554.306 64.7186 552.39 67.9638C550.326 71.504 548.114 75.3392 543.396 75.3392C538.678 75.3392 536.466 71.3565 534.402 67.8163C532.485 64.5711 530.864 61.7685 527.767 61.7685C524.671 61.7685 523.049 64.5711 521.133 67.8163C519.069 71.3565 516.857 75.3392 512.139 75.3392C507.421 75.3392 505.209 71.3565 503.145 67.8163C501.229 64.5711 499.607 61.7685 496.511 61.7685C495.773 61.7685 495.184 61.1784 495.184 60.4409C495.184 59.7034 495.773 59.1133 496.511 59.1133C501.229 59.1133 503.44 63.0961 505.504 66.6363C507.421 69.8814 509.043 72.6841 512.139 72.6841C515.235 72.6841 516.857 69.8814 518.774 66.6363C520.838 63.0961 523.049 59.1133 527.767 59.1133C532.485 59.1133 534.697 63.0961 536.761 66.4887C538.678 69.7339 540.3 72.5366 543.396 72.5366C546.492 72.5366 548.114 69.7339 550.031 66.4887C552.095 62.9485 554.306 58.9658 559.024 58.9658C563.742 58.9658 565.954 62.9485 568.018 66.4887C569.935 69.7339 571.557 72.5366 574.653 72.5366C577.749 72.5366 579.371 69.7339 581.288 66.4887C583.352 62.9485 585.563 59.1133 590.281 59.1133C594.999 59.1133 597.211 63.0961 599.275 66.6363C601.192 69.8814 602.814 72.6841 605.91 72.6841C609.006 72.6841 610.628 69.8814 612.544 66.6363C614.609 63.0961 616.82 59.1133 621.538 59.1133C622.275 59.1133 622.865 59.7034 622.865 60.4409C622.865 61.1784 622.275 61.7685 621.538 61.7685C618.442 61.7685 616.82 64.5711 614.903 67.8163C612.839 71.6515 610.48 75.4868 605.91 75.4868Z" fill="#C7DDFF"/>
<path d="M605.91 54.2456C601.192 54.2456 598.98 50.2628 596.916 46.7226C594.999 43.4775 593.377 40.6748 590.281 40.6748C587.185 40.6748 585.563 43.4775 583.647 46.7226C581.582 50.2628 579.371 54.2456 574.653 54.2456C569.935 54.2456 567.723 50.2628 565.659 46.7226C563.742 43.4775 562.121 40.6748 559.024 40.6748C555.928 40.6748 554.306 43.4775 552.39 46.7226C550.326 50.2628 548.114 54.2456 543.396 54.2456C538.678 54.2456 536.466 50.2628 534.402 46.7226C532.485 43.4775 530.864 40.6748 527.767 40.6748C524.671 40.6748 523.049 43.4775 521.133 46.7226C519.069 50.2628 516.857 54.2456 512.139 54.2456C507.421 54.2456 505.209 50.2628 503.145 46.7226C501.229 43.4775 499.607 40.6748 496.511 40.6748C495.773 40.6748 495.184 40.0848 495.184 39.3472C495.184 38.6097 495.773 38.0197 496.511 38.0197C501.229 38.0197 503.44 42.0024 505.504 45.5426C507.421 48.7878 509.043 51.5904 512.139 51.5904C515.235 51.5904 516.857 48.7878 518.774 45.5426C520.838 42.0024 523.049 38.0197 527.767 38.0197C532.485 38.0197 534.697 42.0024 536.761 45.5426C538.678 48.7878 540.3 51.5904 543.396 51.5904C546.492 51.5904 548.114 48.7878 550.031 45.5426C552.095 42.0024 554.306 38.0197 559.024 38.0197C563.742 38.0197 565.954 42.0024 568.018 45.5426C569.935 48.7878 571.557 51.5904 574.653 51.5904C577.749 51.5904 579.371 48.7878 581.288 45.5426C583.352 42.0024 585.563 38.0197 590.281 38.0197C594.999 38.0197 597.211 42.0024 599.275 45.5426C601.192 48.7878 602.814 51.5904 605.91 51.5904C609.006 51.5904 610.628 48.7878 612.544 45.5426C614.609 42.0024 616.82 38.0197 621.538 38.0197C622.275 38.0197 622.865 38.6097 622.865 39.3472C622.865 40.0848 622.275 40.6748 621.538 40.6748C618.442 40.6748 616.82 43.4775 614.903 46.7226C612.839 50.2628 610.48 54.2456 605.91 54.2456Z" fill="#C7DDFF"/>
<path d="M618.27 125L606 136.909L593.583 125L589 129.448L601.27 141.5L589 153.409L593.583 158L606 145.948L618.27 158L623 153.409L610.583 141.5L623 129.448L618.27 125Z" fill="#C7DDFF"/>
<path d="M611.948 454L575.5 490.448L538.613 454L525 467.613L561.448 504.5L525 540.948L538.613 555L575.5 518.113L611.948 555L626 540.948L589.113 504.5L626 467.613L611.948 454Z" fill="#E7F1FF"/>
<path d="M261.426 80L192.5 148.926L122.744 80L97 105.743L165.926 175.5L97 244.426L122.744 271L192.5 201.244L261.426 271L288 244.426L218.244 175.5L288 105.743L261.426 80Z" fill="#E4EFFF"/>
<defs>
<linearGradient id="paint0_linear" x1="362" y1="96" x2="362" y2="626" gradientUnits="userSpaceOnUse">
<stop stop-color="#C7DDFF"/>
<stop offset="0.697917" stop-color="#F9FBFF"/>
<stop offset="1" stop-color="white"/>
</linearGradient>
</defs>
</svg>
