<svg width="161" height="46" viewBox="0 0 161 46" fill="none" xmlns="http://www.w3.org/2000/svg">
<g clip-path="url(#clip0)">
<path fill-rule="evenodd" clip-rule="evenodd" d="M155.204 46H5.79602C5.03526 46.0045 4.28113 45.8582 3.57718 45.5698C2.87322 45.2813 2.23335 44.8562 1.69451 44.3192C1.15565 43.7821 0.728493 43.1438 0.437662 42.4408C0.146829 41.7378 -0.00191253 40.9841 1.85647e-05 40.2233V5.77661C-0.00191253 5.01584 0.146829 4.26222 0.437662 3.55922C0.728493 2.85623 1.15565 2.21779 1.69451 1.68074C2.23335 1.1437 2.87322 0.718673 3.57718 0.430195C4.28113 0.141719 5.03526 -0.00449986 5.79602 -2.22617e-05H155.204C155.965 -0.00449986 156.719 0.141719 157.422 0.430195C158.127 0.718673 158.767 1.1437 159.306 1.68074C159.844 2.21779 160.272 2.85623 160.562 3.55922C160.853 4.26222 161.002 5.01584 161 5.77661V40.2233C161.002 40.9841 160.853 41.7378 160.562 42.4408C160.272 43.1438 159.844 43.7821 159.306 44.3192C158.767 44.8562 158.127 45.2813 157.422 45.5698C156.719 45.8582 155.965 46.0045 155.204 46Z" fill="black"/>
<path fill-rule="evenodd" clip-rule="evenodd" d="M80.7145 19.6713C78.032 19.6713 75.778 21.7026 75.778 24.5909C75.778 27.3727 78.032 29.5117 80.7145 29.5117C83.3982 29.5117 85.6522 27.4792 85.6522 24.5909C85.6522 21.7026 83.506 19.6701 80.7145 19.6701V19.6713ZM80.7145 27.4792C79.2122 27.4792 77.9242 26.3026 77.9242 24.4843C77.9242 22.7727 79.2122 21.4883 80.7145 21.4883C82.218 21.4883 83.506 22.6649 83.506 24.4843C83.506 26.3026 82.218 27.4792 80.7145 27.4792ZM69.982 19.6713C67.2982 19.6713 65.0442 21.7026 65.0442 24.5909C65.0442 27.3727 67.2982 29.5117 69.982 29.5117C72.6645 29.5117 74.9185 27.4792 74.9185 24.5909C74.9185 21.7026 72.7722 19.6701 69.982 19.6701V19.6713ZM69.982 27.4792C68.4785 27.4792 67.1905 26.3026 67.1905 24.4843C67.1905 22.7727 68.4785 21.4883 69.982 21.4883C71.4842 21.4883 72.7722 22.6649 72.7722 24.4843C72.7722 26.3026 71.4842 27.4792 69.982 27.4792ZM57.2085 21.1675V23.2011H62.254C62.1462 24.3767 61.7165 25.2325 61.0725 25.7675C60.322 26.5168 59.2482 27.2649 57.2085 27.2649C54.0962 27.2649 51.7345 24.8052 51.7345 21.7026C51.7345 18.6 54.0962 16.1402 57.2085 16.1402C58.8185 16.1402 60.1065 16.7817 60.966 17.6377L62.4682 16.1402C61.1802 14.9636 59.5702 14 57.2085 14C53.0225 14 49.4805 17.4233 49.4805 21.5961C49.4805 25.7675 53.0225 29.1909 57.2085 29.1909C59.4625 29.1909 61.1802 28.4427 62.576 27.0519C63.9705 25.6597 64.4002 23.7351 64.4002 22.2376C64.4002 21.7026 64.4002 21.2752 64.2925 20.9545H57.2097V21.1675H57.2085ZM109.48 22.7727C109.05 21.7026 107.87 19.6701 105.294 19.6701C102.718 19.6701 100.678 21.7037 100.678 24.5909C100.678 27.3727 102.718 29.5117 105.508 29.5117C107.762 29.5117 109.05 28.1207 109.588 27.3727L107.87 26.3026C107.334 27.1584 106.582 27.6935 105.401 27.6935C104.328 27.6935 103.576 27.1584 103.04 26.1961L109.588 23.5207L109.48 22.7727ZM102.826 24.3767C102.718 22.4519 104.328 21.4883 105.402 21.4883C106.26 21.4883 107.012 21.9168 107.226 22.5584L102.826 24.3767ZM97.4585 29.1909H99.606V14.7493H97.4585V29.1909ZM93.9165 20.7402C93.3802 20.2052 92.4142 19.6701 91.234 19.6701C88.7645 19.6701 86.5105 21.8103 86.5105 24.5909C86.5105 27.3727 88.7645 29.5117 91.234 29.5117C92.4142 29.5117 93.3802 28.9767 93.81 28.4427H93.9165V29.1909C93.9165 31.0103 92.9505 32.0792 91.3405 32.0792C90.0525 32.0792 89.1942 31.1168 88.8722 30.3675L86.9402 30.9026C87.4765 32.1858 88.8722 33.7909 91.3405 33.7909C93.9165 33.7909 95.9562 32.2935 95.9562 28.6558V19.8843H93.9165V20.7402ZM91.4482 27.4792C89.946 27.4792 88.7645 26.1961 88.7645 24.4843C88.7645 22.7727 90.0525 21.4883 91.4482 21.4883C92.9505 21.4883 94.0242 22.7715 94.0242 24.4843C94.132 26.3026 92.9505 27.4792 91.4482 27.4792ZM119.569 14.7493H114.419V29.0843H116.565V23.6285H119.571C121.931 23.6285 124.293 21.9168 124.293 19.1351C124.293 16.3545 122.039 14.7493 119.571 14.7493H119.569ZM119.677 21.7026H116.564V16.7817H119.676C121.286 16.7817 122.252 18.0649 122.252 19.2427C122.146 20.3117 121.286 21.7026 119.676 21.7026H119.677ZM132.986 19.6701C131.376 19.6701 129.766 20.3117 129.122 21.9168L131.054 22.6649C131.484 21.9168 132.234 21.5961 132.986 21.5961C134.06 21.5961 135.24 22.2376 135.24 23.4142V23.5207C134.542 23.1656 133.769 22.9825 132.986 22.9869C130.946 22.9869 128.8 24.1636 128.8 26.1948C128.8 28.1207 130.518 29.4052 132.342 29.4052C133.738 29.4052 134.596 28.7636 135.132 28.0142H135.24V29.0843H137.28V23.5207C137.386 21.061 135.454 19.6713 132.986 19.6713V19.6701ZM132.664 27.4792C131.913 27.4792 130.946 27.1584 130.946 26.3026C130.946 25.2325 132.128 24.8052 133.2 24.8052C134.166 24.8052 134.596 25.0194 135.132 25.2325C135.132 26.5157 133.952 27.4792 132.664 27.4792ZM144.9 19.9909L142.431 26.1961H142.324L139.748 19.9909H137.387L141.25 28.6558L139.104 33.4701H141.358L147.262 19.8843H144.9V19.9909ZM125.58 29.1909H127.726V14.7493H125.58V29.1909Z" fill="white"/>
<path fill-rule="evenodd" clip-rule="evenodd" d="M14.1681 8.66504C13.8461 8.98583 13.6318 9.52088 13.6318 10.2702V35.73C13.6318 36.4793 13.8461 37.0131 14.1681 37.3351L14.2758 37.4416L28.5503 23.2144V22.7858L14.1681 8.66504Z" fill="url(#paint0_linear)"/>
<path fill-rule="evenodd" clip-rule="evenodd" d="M33.3804 27.9209L28.6582 23.2143V22.7858L33.3804 18.0793L33.4882 18.1858L39.1777 21.3949C40.7877 22.3584 40.7877 23.8558 39.1777 24.7117L33.4882 27.9209H33.3804Z" fill="url(#paint1_linear)"/>
<path fill-rule="evenodd" clip-rule="evenodd" d="M33.488 27.8142L28.658 23L14.168 37.3351C14.7042 37.8701 15.5637 37.9767 16.5285 37.4416L33.488 27.8142Z" fill="url(#paint2_linear)"/>
<path fill-rule="evenodd" clip-rule="evenodd" d="M33.4881 18.1858L16.6376 8.55849C15.6704 8.02344 14.8121 8.02344 14.2759 8.66502L28.6581 23.0001L33.4881 18.1858Z" fill="url(#paint3_linear)"/>
<path opacity="0.2" fill-rule="evenodd" clip-rule="evenodd" d="M33.3802 27.7066L16.6362 37.2273C15.6702 37.7624 14.812 37.7624 14.2757 37.2273L14.168 37.3351L14.2757 37.4416C14.812 37.9767 15.6702 37.9767 16.6362 37.4416L33.488 27.8142L33.3802 27.7066Z" fill="black"/>
<path opacity="0.12" fill-rule="evenodd" clip-rule="evenodd" d="M14.1681 37.1208C13.8461 36.8 13.6318 36.2649 13.6318 35.5169V35.73C13.6318 36.4792 13.8461 37.013 14.1681 37.335V37.1208ZM39.0686 24.4975L33.2738 27.7065L33.3803 27.8143L39.0698 24.6052C39.9281 24.1766 40.2501 23.535 40.2501 22.8934C40.2501 23.535 39.8203 24.0701 39.0698 24.4975H39.0686Z" fill="black"/>
<path opacity="0.25" fill-rule="evenodd" clip-rule="evenodd" d="M16.6361 8.77267L39.1761 21.5026C39.9278 21.9299 40.3576 22.4649 40.3576 23C40.3576 22.3584 39.9278 21.8233 39.1761 21.2883L16.6361 8.55842C15.0261 7.59483 13.7381 8.45067 13.7381 10.2701V10.4831C13.6316 8.66494 14.9196 7.8091 16.6361 8.77267Z" fill="white"/>
</g>
<defs>
<linearGradient id="paint0_linear" x1="27.3" y1="10.0161" x2="4.40957" y2="16.1481" gradientUnits="userSpaceOnUse">
<stop stop-color="#00A0FF"/>
<stop offset="0.007" stop-color="#00A1FF"/>
<stop offset="0.26" stop-color="#00BEFF"/>
<stop offset="0.512" stop-color="#00D2FF"/>
<stop offset="0.76" stop-color="#00DFFF"/>
<stop offset="1" stop-color="#00E3FF"/>
</linearGradient>
<linearGradient id="paint1_linear" x1="41.1871" y1="23.0022" x2="13.2655" y2="23.0022" gradientUnits="userSpaceOnUse">
<stop stop-color="#FFE000"/>
<stop offset="0.409" stop-color="#FFBD00"/>
<stop offset="0.775" stop-color="#FFA500"/>
<stop offset="1" stop-color="#FF9C00"/>
</linearGradient>
<linearGradient id="paint2_linear" x1="30.7928" y1="25.6402" x2="12.6041" y2="56.5605" gradientUnits="userSpaceOnUse">
<stop stop-color="#FF3A44"/>
<stop offset="1" stop-color="#C31162"/>
</linearGradient>
<linearGradient id="paint3_linear" x1="10.5675" y1="0.203432" x2="18.8017" y2="13.9764" gradientUnits="userSpaceOnUse">
<stop stop-color="#32A071"/>
<stop offset="0.069" stop-color="#2DA771"/>
<stop offset="0.476" stop-color="#15CF74"/>
<stop offset="0.801" stop-color="#06E775"/>
<stop offset="1" stop-color="#00F076"/>
</linearGradient>
<clipPath id="clip0">
<rect width="161" height="46" fill="white"/>
</clipPath>
</defs>
</svg>
