<svg width="118" height="32" viewBox="0 0 118 32" fill="none" xmlns="http://www.w3.org/2000/svg">
<g clip-path="url(#clip0)">
<path fill-rule="evenodd" clip-rule="evenodd" d="M68.0732 10.9399H73.693V26.9801H78.0326V10.9399H81.3741H86.9939V26.9801H91.3262V10.9399H96.4397L98.3275 7.0542H85.0266H68.0732V10.9399Z" fill="white"/>
<path fill-rule="evenodd" clip-rule="evenodd" d="M50.1582 24.719C51.4818 21.9602 53.9698 19.8527 56.9786 19.0917L59.3943 13.2522L61.7883 19.0332C64.8911 19.7357 67.4587 21.8358 68.8185 24.6604H68.8402L61.282 7.0542H57.6946L50.1582 24.719Z" fill="white"/>
<path fill-rule="evenodd" clip-rule="evenodd" d="M107.651 23.0725C104.338 23.0725 101.655 20.3577 101.655 17.0062C101.655 13.6547 104.338 10.9399 107.651 10.9399C110.963 10.9399 113.647 13.6547 113.647 17.0062C113.647 20.3577 110.963 23.0725 107.651 23.0725ZM117.994 17.0062C117.994 11.2253 113.365 6.54199 107.651 6.54199C101.937 6.54199 97.3081 11.2253 97.3081 17.0062C97.3081 22.7871 101.937 27.4704 107.651 27.4704C113.365 27.4704 117.994 22.7871 117.994 17.0062Z" fill="white"/>
<path fill-rule="evenodd" clip-rule="evenodd" d="M0.00683594 32L3.36279 30.5219C10.1832 27.99 16.5045 27.1119 23.8457 27.4997C29.9501 27.8217 34.4922 28.9632 40.1264 31.4366L41.1896 32L31.8016 17.394C25.4079 17.4892 17.9149 19.3113 12.7363 21.8066C9.39483 23.4091 7.62283 24.697 4.96121 26.8411C3.81122 27.7704 2.30682 29.2779 1.30871 30.3609C1.03387 30.6609 0.115326 31.7585 0.00683594 32Z" fill="white"/>
<path fill-rule="evenodd" clip-rule="evenodd" d="M5.43115 23.5774L6.08209 23.131C6.29907 22.9408 6.44372 22.8164 6.65347 22.6334C7.99151 21.4992 8.65692 21.0016 10.2119 19.9186C14.8336 16.6915 21.0609 14.3279 26.6518 13.3327C27.1364 13.2449 28.5323 13.0912 28.9445 12.9595L20.6125 0L5.43115 23.5774Z" fill="white"/>
<path fill-rule="evenodd" clip-rule="evenodd" d="M36.9441 17.0867H39.1501V18.5136H40.5532V14.2401H39.1501V11.3863H37.7325V15.6597H36.0256L36.9441 17.0867ZM41.9636 14.2328V15.6597H43.2872V14.2328H41.9636ZM40.5532 12.8059H43.2872V11.3863H40.5532V12.8059ZM33.5086 9.95932H43.2872V0.0219727H33.5086V9.95932ZM41.9636 8.53238H34.919V1.405H41.9636V8.53238ZM36.3221 7.10544H40.5532V2.83194H36.3221V7.10544ZM34.9117 11.3789H33.5086V11.7375L34.9117 13.9328V11.3789ZM32.0982 9.54953V7.10544H30.6879V4.25156H32.0982V0.0219727H30.6879V2.83194H29.2775V0.0219727H25.9722L26.8546 1.405H27.8671V2.97098L28.6916 4.25156H29.2775V5.16627L32.0982 9.54953ZM41.9636 21.3602H39.6925L40.6111 22.7871H41.9636V21.3602ZM39.1501 20.5113V18.5136H37.8627L39.1501 20.5113ZM43.2872 24.2141H41.9636V24.8946L42.4409 25.641L43.2872 26.8704V24.2141ZM41.9636 24.2141H43.2872V22.7871H41.9636V24.2141ZM41.9636 17.1379V18.5648H43.2872V17.1379H41.9636Z" fill="white"/>
<path fill-rule="evenodd" clip-rule="evenodd" d="M59.3726 18.7698C55.3151 18.8283 51.829 21.2285 50.1727 24.6971L49.8328 25.4874L49.1963 26.9802H53.9771C54.8595 24.7044 56.9425 23.2262 59.3726 23.1677C59.4233 23.1677 59.7704 23.1677 59.8283 23.175C62.1861 23.2994 64.1896 24.7556 65.0503 26.9802H69.8383L69.1946 25.4874L68.8619 24.6971C67.249 21.3163 63.8858 18.9454 59.9657 18.7771C59.8645 18.7698 59.4739 18.7698 59.3726 18.7698Z" fill="white"/>
</g>
<defs>
<clipPath id="clip0">
<rect width="118" height="32" fill="white"/>
</clipPath>
</defs>
</svg>
