<svg width="18" height="18" viewBox="0 0 18 18" fill="none" xmlns="http://www.w3.org/2000/svg">
<path d="M9.00063 0.5625C4.34424 0.5625 0.563132 4.34369 0.563132 9.00055C0.565945 10.4908 0.970858 11.9492 1.72109 13.2347L0.577414 16.6657C0.504109 16.8856 0.713486 17.0949 0.93337 17.0217L4.21499 15.928C5.62151 16.9017 7.28669 17.435 9.00008 17.4375C13.6567 17.4374 17.4376 13.6565 17.4376 9C17.4376 4.34335 13.657 0.562607 9.00063 0.5625ZM6.18099 8.15625C6.64364 8.15625 7.02474 8.53739 7.02474 9C7.02473 9.46272 6.64363 9.84375 6.18099 9.84375C5.71835 9.84375 5.3378 9.46272 5.33779 9C5.33779 8.53739 5.71835 8.15625 6.18099 8.15625ZM9.00063 8.15625C9.46328 8.15625 9.84439 8.53739 9.84438 9C9.84438 9.46272 9.46327 9.84375 9.00063 9.84375C8.53799 9.84375 8.15689 9.46272 8.15688 9C8.15688 8.53739 8.53798 8.15625 9.00063 8.15625ZM11.806 8.15625C12.2686 8.15625 12.6497 8.53739 12.6497 9C12.6497 9.46272 12.2686 9.84375 11.806 9.84375C11.3434 9.84375 10.9622 9.46272 10.9622 9C10.9622 8.53739 11.3433 8.15625 11.806 8.15625Z" fill="white"/>
</svg>
